<?xml version="1.0" encoding="utf-8"?>
<!-- Generator: Adobe Illustrator 25.0.0, SVG Export Plug-In . SVG Version: 6.00 Build 0)  -->
<svg version="1.1" id="Layer_1" xmlns="http://www.w3.org/2000/svg" xmlns:xlink="http://www.w3.org/1999/xlink" x="0px" y="0px"
	 viewBox="0 0 13 20" style="enable-background:new 0 0 13 20;" xml:space="preserve">
<style type="text/css">
	.st0{fill:#FFFFFF;}
</style>
<path class="st0" d="M9.7,6.7c0.8,0,1.7-0.4,2.2-1c0.6-0.6,0.9-1.5,0.9-2.3S12.6,1.6,12,1c-0.6-0.6-1.4-1-2.2-1H3.2
	C2.4,0,1.6,0.4,1,1C0.4,1.6,0,2.5,0,3.3S0.4,5,1,5.7c0.6,0.6,1.4,1,2.2,1c-0.9,0-1.7,0.4-2.3,1C0.3,8.3,0,9.1,0,10
	c0,0.9,0.3,1.7,0.9,2.3c0.6,0.6,1.4,1,2.3,1c-0.9,0-1.7,0.4-2.3,1C0.4,15,0,15.8,0,16.7C0,17.5,0.4,18.4,1,19c0.6,0.6,1.4,1,2.3,1
	c0.9,0,1.7-0.4,2.3-1c0.6-0.6,1-1.5,1-2.4v-10H9.7z"/>
<path class="st0" d="M9.7,13.3c1.8,0,3.3-1.5,3.3-3.3c0-1.8-1.5-3.3-3.3-3.3c-1.8,0-3.3,1.5-3.3,3.3C6.5,11.8,7.9,13.3,9.7,13.3z"/>
</svg>
