<svg width="19" height="20" viewBox="0 0 19 20" fill="none" xmlns="http://www.w3.org/2000/svg">
<path d="M6.26461 12.9309V19.4828C6.26461 19.8846 6.69666 20.1318 7.04643 19.9258L12.4779 16.6498C12.8071 16.4541 12.8071 15.9699 12.4779 15.7742L7.04643 12.4982C6.70696 12.2922 6.26461 12.5394 6.26461 12.9309Z" fill="#325B55"/>
<path d="M6.26461 0.507042V7.05896C6.26461 7.46071 6.69666 7.70796 7.04643 7.50194L12.4779 4.22597C12.8071 4.03023 12.8071 3.54604 12.4779 3.35034L7.04643 0.0743688C6.70696 -0.131666 6.26461 0.115577 6.26461 0.507042Z" fill="#325B55"/>
<path d="M0 6.71894V13.2708C0 13.6726 0.432051 13.9199 0.781808 13.7138L6.21329 10.4379C6.54251 10.2421 6.54251 9.75795 6.21329 9.56221L0.781808 6.28626C0.432051 6.08022 0 6.32746 0 6.71894Z" fill="#325B55"/>
<path d="M12.5398 6.71894V13.2708C12.5398 13.6726 12.9718 13.9199 13.3216 13.7138L18.7531 10.4379C19.0823 10.2421 19.0823 9.75795 18.7531 9.56221L13.3216 6.28626C12.9718 6.08022 12.5398 6.32746 12.5398 6.71894Z" fill="#325B55"/>
</svg>
