<svg width="20" height="20" viewBox="0 0 20 20" fill="none" xmlns="http://www.w3.org/2000/svg">
<path d="M10 20C15.5229 20 20 15.5229 20 10C20 4.47708 15.5229 0 10 0C4.47708 0 0 4.47708 0 10C0 15.5229 4.47708 20 10 20Z" fill="#5B3137"/>
<path d="M5.6875 5.48708V8.88875C6.20542 8.27125 6.82625 7.96042 7.54625 7.96042C7.91708 7.96042 8.24917 8.03125 8.54708 8.17167C8.84583 8.31125 9.06917 8.49042 9.22 8.70792C9.37167 8.9275 9.47417 9.16792 9.52958 9.43292C9.58458 9.69667 9.61208 10.1071 9.61208 10.6638V14.3008H8.00292V11.025C8.00292 10.375 7.97375 9.96333 7.9125 9.78833C7.85511 9.6169 7.74127 9.47001 7.58958 9.37167C7.43458 9.26708 7.24167 9.21542 7.00875 9.21542C6.74208 9.21542 6.50292 9.28208 6.295 9.41458C6.0825 9.54792 5.93 9.74708 5.83333 10.0133C5.735 10.28 5.68583 10.6738 5.6875 11.195L5.68583 14.3008H4.07875V5.48708H5.6875ZM12.0237 5.48708V8.88875C12.5421 8.27125 13.1625 7.96042 13.8821 7.96042C14.2517 7.96042 14.5862 8.03125 14.8846 8.17167C15.1821 8.31125 15.4054 8.49042 15.5554 8.70792C15.7068 8.92604 15.8121 9.17273 15.865 9.43292C15.9204 9.69667 15.9479 10.1071 15.9479 10.6638V14.3008H14.3404V11.025C14.3404 10.375 14.31 9.96333 14.2487 9.78833C14.1914 9.61667 14.0772 9.4697 13.925 9.37167C13.7717 9.26708 13.5771 9.21542 13.3442 9.21542C13.0779 9.21542 12.8387 9.28208 12.6304 9.41458C12.4208 9.54792 12.2675 9.74708 12.1696 10.0133C12.0729 10.28 12.0237 10.6738 12.0237 11.195V14.3008H10.4167V5.48708H12.0237Z" fill="#FEFEFE"/>
</svg>
