<?xml version="1.0" encoding="utf-8"?>
<!-- Generator: Adobe Illustrator 25.0.0, SVG Export Plug-In . SVG Version: 6.00 Build 0)  -->
<svg version="1.1" id="Layer_1" xmlns="http://www.w3.org/2000/svg" xmlns:xlink="http://www.w3.org/1999/xlink" x="0px" y="0px"
	 viewBox="0 0 20 20" style="enable-background:new 0 0 20 20;" xml:space="preserve">
<style type="text/css">
	.st0{fill:#FEFEFE;}
	.st1{fill:#5B3137;}
</style>
<path class="st0" d="M5.7,5.5v3.4C6.2,8.3,6.8,8,7.5,8c0.4,0,0.7,0.1,1,0.2C8.8,8.3,9,8.5,9.2,8.7s0.3,0.5,0.3,0.7
	c0.1,0.3,0.1,0.7,0.1,1.2v3.6H8V11c0-0.6,0-1.1-0.1-1.2c0-0.2-0.2-0.3-0.3-0.4C7.4,9.3,7.2,9.2,7,9.2c-0.3,0-0.5,0.1-0.7,0.2
	C6.1,9.5,5.9,9.7,5.8,10s-0.1,0.7-0.1,1.2v3.1H4.1V5.5H5.7z M12,5.5v3.4C12.5,8.3,13.2,8,13.9,8c0.4,0,0.7,0.1,1,0.2
	c0.3,0.1,0.5,0.3,0.7,0.5s0.3,0.5,0.3,0.7C16,9.7,16,10.1,16,10.6v3.6h-1.6V11c0-0.6,0-1.1-0.1-1.2c-0.1-0.2-0.2-0.3-0.3-0.4
	c-0.2-0.1-0.3-0.2-0.6-0.2s-0.5,0.1-0.7,0.2c-0.2,0.1-0.4,0.3-0.5,0.6s-0.1,0.7-0.1,1.2v3.1h-1.6V5.5H12z"/>
<path class="st1" d="M10,0C4.5,0,0,4.5,0,10s4.5,10,10,10s10-4.5,10-10S15.5,0,10,0z M15.4,12.3c-0.2,1.7-1.1,2.8-3.9,3.4
	c-3.7,0.5-5.6-0.6-5.8-0.6c-0.2,0-0.3-0.2-0.3-0.3s0-1.9,0-1.9s0.1-0.4,0.5-0.3C10,14.1,12.1,13,12,12s-1.4-1-1.4-1s-2.3,0-2.5,0
	s-0.2-0.2-0.2-0.2s0-1.6,0-1.8s0.2-0.3,0.2-0.3s0.7,0,1.2,0s2.3,0.3,2.4-1c0-1.3-1.9-1.2-3.1-1.1C7.3,6.6,6.2,7.1,6,7.1
	S5.7,6.9,5.7,6.8V5c0,0,0-0.2,0.3-0.3c0.2-0.1,1.4-0.5,2.3-0.6c1-0.1,2.1-0.1,3.3,0.1s3,1.1,3.2,2.4S14.5,9,13.5,9.4
	c-0.3,0.1,0.3,0.3,0.3,0.3S15.5,10.6,15.4,12.3z"/>
</svg>
