<?xml version="1.0" encoding="utf-8"?>
<!-- Generator: Adobe Illustrator 25.0.0, SVG Export Plug-In . SVG Version: 6.00 Build 0)  -->
<svg version="1.1" id="Layer_1" xmlns="http://www.w3.org/2000/svg" xmlns:xlink="http://www.w3.org/1999/xlink" x="0px" y="0px"
	 viewBox="0 0 20 20" style="enable-background:new 0 0 20 20;" xml:space="preserve">
<style type="text/css">
	.st0{fill:#FEFEFE;}
	.st1{fill:#335C56;}
</style>
<path class="st0" d="M5.7,5.5v3.4C6.2,8.3,6.8,8,7.5,8c0.4,0,0.7,0.1,1,0.2c0.3,0.1,0.5,0.3,0.7,0.5c0.2,0.2,0.3,0.5,0.3,0.7
	c0.1,0.3,0.1,0.7,0.1,1.2v3.6H8V11c0-0.6,0-1.1-0.1-1.2C7.9,9.6,7.7,9.5,7.6,9.4C7.4,9.3,7.2,9.2,7,9.2c-0.3,0-0.5,0.1-0.7,0.2
	C6.1,9.5,5.9,9.7,5.8,10c-0.1,0.3-0.1,0.7-0.1,1.2l0,3.1H4.1V5.5H5.7z M12,5.5v3.4C12.5,8.3,13.2,8,13.9,8c0.4,0,0.7,0.1,1,0.2
	c0.3,0.1,0.5,0.3,0.7,0.5c0.2,0.2,0.3,0.5,0.3,0.7c0.1,0.3,0.1,0.7,0.1,1.2v3.6h-1.6V11c0-0.6,0-1.1-0.1-1.2
	c-0.1-0.2-0.2-0.3-0.3-0.4c-0.2-0.1-0.3-0.2-0.6-0.2c-0.3,0-0.5,0.1-0.7,0.2c-0.2,0.1-0.4,0.3-0.5,0.6c-0.1,0.3-0.1,0.7-0.1,1.2v3.1
	h-1.6V5.5H12z"/>
<path class="st1" d="M10,0C4.5,0,0,4.5,0,10s4.5,10,10,10s10-4.5,10-10S15.5,0,10,0z M15.4,12.3c-0.2,1.7-1.1,2.8-3.9,3.4
	c-3.7,0.5-5.6-0.6-5.8-0.6c-0.2,0-0.3-0.2-0.3-0.3c0-0.1,0-1.9,0-1.9s0.1-0.4,0.5-0.3C10,14.1,12.1,13,12,12c-0.1-1-1.4-1-1.4-1
	s-2.3,0-2.5,0c-0.2,0-0.2-0.2-0.2-0.2s0-1.6,0-1.8c0-0.2,0.2-0.3,0.2-0.3s0.7,0,1.2,0c0.5,0,2.3,0.3,2.4-1c0-1.3-1.9-1.2-3.1-1.1
	C7.3,6.6,6.2,7.1,6,7.1c-0.2,0-0.3-0.2-0.3-0.3c0,0,0-1.8,0-1.8S5.7,4.8,6,4.7c0.2-0.1,1.4-0.5,2.3-0.6C9.3,4,10.4,4,11.6,4.2
	c1.2,0.2,3,1.1,3.2,2.4c0.2,1.3-0.3,2.4-1.3,2.8c-0.3,0.1,0.3,0.3,0.3,0.3S15.5,10.6,15.4,12.3z"/>
</svg>
