<svg width="262" height="300" viewBox="0 0 262 300" fill="none" xmlns="http://www.w3.org/2000/svg">
<path d="M179.622 83.1204L179.061 82.9705L150.422 73.6728C141.704 70.7747 133.781 65.8804 127.282 59.3788C120.784 52.8773 115.889 44.9476 112.986 36.2198L103.702 7.57703C102.927 5.36253 101.484 3.44391 99.5724 2.08651C97.6611 0.729115 95.3758 0 93.0326 0C90.6894 0 88.4041 0.729115 86.4928 2.08651C84.5814 3.44391 83.1384 5.36253 82.3633 7.57703L73.0043 36.2198C70.1709 44.8824 65.3746 52.7709 58.9905 59.2684C52.6064 65.7658 44.8078 70.6958 36.2046 73.6728L7.56604 82.9705C5.35475 83.7467 3.43896 85.1918 2.08353 87.1059C0.7281 89.0201 0 91.3087 0 93.6553C0 96.0019 0.7281 98.2905 2.08353 100.205C3.43896 102.119 5.35475 103.564 7.56604 104.34L36.2046 113.675C44.9291 116.595 52.8545 121.51 59.3525 128.031C65.8505 134.551 70.7425 142.498 73.6407 151.241L82.9249 179.883C83.7006 182.097 85.1439 184.015 87.0552 185.372C88.9665 186.728 91.2514 187.457 93.5942 187.457H93.7438C96.0609 187.426 98.3127 186.683 100.194 185.329C102.076 183.974 103.496 182.073 104.263 179.883L113.585 151.241C116.479 142.514 121.366 134.584 127.859 128.082C134.351 121.58 142.27 116.686 150.984 113.788L179.622 104.49C181.817 103.697 183.713 102.245 185.054 100.333C186.395 98.4211 187.114 96.1416 187.114 93.8052C187.114 91.4689 186.395 89.1894 185.054 87.2773C183.713 85.3653 181.817 83.9137 179.622 83.1204ZM232.632 208.901L255.543 216.362L256.029 216.474C257.779 217.11 259.29 218.269 260.359 219.795C261.427 221.321 262 223.14 262 225.003C262 226.867 261.427 228.685 260.359 230.211C259.29 231.737 257.779 232.897 256.029 233.532L233.081 241.031C226.118 243.348 219.789 247.259 214.597 252.452C209.405 257.645 205.493 263.978 203.17 270.948L195.72 293.892C195.11 295.674 193.96 297.221 192.43 298.316C190.899 299.411 189.065 300 187.184 300C185.303 300 183.469 299.411 181.939 298.316C180.409 297.221 179.258 295.674 178.649 293.892L171.162 270.948C168.865 263.952 164.967 257.591 159.781 252.371C154.594 247.151 148.262 243.216 141.288 240.881L118.339 233.42C116.59 232.785 115.078 231.625 114.01 230.099C112.942 228.573 112.369 226.755 112.369 224.891C112.369 223.027 112.942 221.209 114.01 219.683C115.078 218.157 116.59 216.997 118.339 216.362L141.288 208.864C148.169 206.489 154.409 202.553 159.52 197.363C164.631 192.173 168.474 185.87 170.75 178.946L178.2 156.002C178.827 154.237 179.984 152.71 181.512 151.63C183.04 150.55 184.865 149.97 186.735 149.97C188.605 149.97 190.43 150.55 191.958 151.63C193.487 152.71 194.644 154.237 195.271 156.002L202.72 178.946C205.033 185.926 208.942 192.269 214.135 197.47C219.328 202.67 225.662 206.585 232.632 208.901Z" fill="#414241" fill-opacity="0.05"/>
</svg>
