<svg width="31" height="50" viewBox="0 0 31 50" fill="none" xmlns="http://www.w3.org/2000/svg">
<path d="M0 0V1.61979C0.478247 1.79558 0.503419 2.17227 1.83748 2.7122C4.74472 3.89251 8.18055 8.12406 9.51461 9.5555C10.8361 10.9869 11.3269 11.9915 11.3395 12.8076C11.3521 13.6364 10.748 14.6283 11.5031 16.0974C12.2582 17.5665 16.8142 19.2115 18.1356 20.0025C19.4697 20.7936 18.4629 22.1874 18.0979 22.5138C17.7329 22.8403 16.5121 23.8699 16.2604 24.2717C16.0087 24.661 18.0224 27.0341 18.2363 28.2772C18.4503 29.5329 17.7329 29.8845 17.519 29.9598C17.305 30.0352 15.9709 31.3159 16.6254 31.2531C18.4125 30.6504 19.0292 31.5419 19.2809 32.0819C19.5326 32.6218 18.2741 33.9402 18.2741 34.9448C18.2741 35.9493 19.0418 36.0372 19.5704 37.5942C20.0738 40.1683 18.5635 42.5791 16.4869 43.3702C14.4984 44.1236 11.3143 44.1989 8.40709 50H30.0163V0H0Z" fill="#5B3137"/>
</svg>
