<svg width="31" height="50" viewBox="0 0 31 50" fill="none" xmlns="http://www.w3.org/2000/svg">
<path d="M0.0217285 0V1.61979C0.499976 1.79558 0.525147 2.17227 1.85921 2.7122C4.76645 3.89251 8.20228 8.12406 9.53633 9.5555C10.8578 10.9869 11.3486 11.9915 11.3612 12.8076C11.3738 13.6364 10.7697 14.6283 11.5248 16.0974C12.28 17.5665 16.8359 19.2115 18.1574 20.0025C19.4914 20.7936 18.4846 22.1874 18.1196 22.5138C17.7546 22.8403 16.5338 23.8699 16.2821 24.2717C16.0304 24.661 18.0441 27.0341 18.2581 28.2772C18.472 29.5329 17.7546 29.8845 17.5407 29.9598C17.3267 30.0352 15.9927 31.3159 16.6471 31.2531C18.4343 30.6504 19.0509 31.5419 19.3027 32.0819C19.5544 32.6218 18.2958 33.9402 18.2958 34.9448C18.2958 35.9493 19.0635 36.0372 19.5921 37.5942C20.0955 40.1683 18.5853 42.5791 16.5087 43.3702C14.5202 44.1236 11.3361 44.1989 8.42881 50H30.038V0H0.0217285Z" fill="#414241"/>
</svg>
