<svg width="13" height="20" viewBox="0 0 13 20" fill="none" xmlns="http://www.w3.org/2000/svg">
<path d="M9.73611 6.66567C10.5847 6.63966 11.3899 6.27712 11.9812 5.65493C12.5724 5.03274 12.903 4.19983 12.903 3.33283C12.903 2.46583 12.5724 1.63293 11.9812 1.01074C11.3899 0.388547 10.5847 0.0260084 9.73611 0H3.20832C2.35977 0.0260084 1.5545 0.388547 0.963278 1.01074C0.37206 1.63293 0.0413903 2.46583 0.0413903 3.33283C0.0413903 4.19983 0.37206 5.03274 0.963278 5.65493C1.5545 6.27712 2.35977 6.63966 3.20832 6.66567C2.35235 6.68081 1.53644 7.03871 0.936351 7.66228C0.33626 8.28585 0 9.12518 0 9.9995C0 10.8738 0.33626 11.7132 0.936351 12.3367C1.53644 12.9603 2.35235 13.3182 3.20832 13.3333C2.35653 13.3546 1.54664 13.7152 0.951577 14.338C0.356512 14.9608 0.0234208 15.7965 0.0234208 16.6667C0.0234208 17.5368 0.356512 18.3725 0.951577 18.9953C1.54664 19.6181 2.35653 19.9787 3.20832 20C4.07397 19.9995 4.904 19.648 5.51602 19.0228C6.12803 18.3975 6.47196 17.5497 6.47222 16.6657V6.66567H9.73611Z" fill="#325B55"/>
<path d="M9.73611 13.3323C11.5387 13.3323 13 11.8399 13 9.999C13 8.15805 11.5387 6.66567 9.73611 6.66567C7.93351 6.66567 6.47222 8.15805 6.47222 9.999C6.47222 11.8399 7.93351 13.3323 9.73611 13.3323Z" fill="#325B55"/>
</svg>
