<svg width="31" height="50" viewBox="0 0 31 50" fill="none" xmlns="http://www.w3.org/2000/svg">
<path d="M0.199951 0V1.61979C0.677738 1.79558 0.702882 2.17228 2.03566 2.7122C4.9401 3.89252 8.37262 8.12406 9.7054 9.5555C11.0256 10.9869 11.516 11.9915 11.5285 12.8076C11.5411 13.6364 10.9376 14.6283 11.692 16.0974C12.4464 17.5665 16.9979 19.2115 18.3181 20.0025C19.6509 20.7936 18.645 22.1873 18.2804 22.5138C17.9158 22.8403 16.6962 23.8699 16.4447 24.2717C16.1932 24.661 18.205 27.0342 18.4187 28.2772C18.6325 29.5329 17.9158 29.8845 17.702 29.9598C17.4883 30.0352 16.1555 31.3159 16.8093 31.2531C18.5948 30.6504 19.2108 31.5419 19.4623 32.0819C19.7138 32.6218 18.4564 33.9402 18.4564 34.9447C18.4564 35.9493 19.2234 36.0372 19.7515 37.5942C20.2544 40.1683 18.7456 42.5791 16.671 43.3702C14.6844 44.1236 11.5034 44.1989 8.59895 50H30.2V0H0.199951Z" fill="#345C56"/>
</svg>
