<svg width="30" height="50" viewBox="0 0 30 50" fill="none" xmlns="http://www.w3.org/2000/svg">
<path d="M0 0V1.61979C0.477987 1.79558 0.503145 2.17227 1.83648 2.7122C4.74214 3.89251 8.1761 8.12406 9.50944 9.5555C10.8302 10.9869 11.3208 11.9915 11.3333 12.8076C11.3459 13.6364 10.7421 14.6283 11.4969 16.0974C12.2516 17.5665 16.805 19.2115 18.1258 20.0025C19.4591 20.7936 18.4528 22.1874 18.088 22.5138C17.7233 22.8403 16.5031 23.8699 16.2516 24.2717C16 24.661 18.0126 27.0341 18.2264 28.2772C18.4403 29.5329 17.7233 29.8845 17.5094 29.9598C17.2956 30.0352 15.9623 31.3159 16.6164 31.2531C18.4025 30.6504 19.0189 31.5419 19.2704 32.0819C19.522 32.6218 18.2642 33.9402 18.2642 34.9448C18.2642 35.9493 19.0314 36.0372 19.5597 37.5942C20.0629 40.1683 18.5535 42.5791 16.478 43.3702C14.4906 44.1236 11.3082 44.1989 8.40252 50H30V0H0Z" fill="#5B3137"/>
</svg>
