<?xml version="1.0" encoding="utf-8"?>
<!-- Generator: Adobe Illustrator 25.0.0, SVG Export Plug-In . SVG Version: 6.00 Build 0)  -->
<svg version="1.1" id="Layer_1" xmlns="http://www.w3.org/2000/svg" xmlns:xlink="http://www.w3.org/1999/xlink" x="0px" y="0px"
	 viewBox="0 0 100 116" style="enable-background:new 0 0 100 116;" xml:space="preserve">
<style type="text/css">
	.st0{clip-path:url(#SVGID_2_);}
	.st1{fill:#5B3137;}
</style>
<g>
	<g>
		<g>
			<defs>
				<rect id="SVGID_1_" width="99.9" height="115.5"/>
			</defs>
			<clipPath id="SVGID_2_">
				<use xlink:href="#SVGID_1_"  style="overflow:visible;"/>
			</clipPath>
			<g class="st0">
				<path class="st1" d="M33,0v3.1c0.9,0.3,0.9,1,3.4,2.1c5.4,2.2,11.8,10.3,14.3,13s3.4,4.6,3.4,6.2s-1.1,3.5,0.3,6.2
					c1.4,2.8,9.9,5.9,12.4,7.4s0.6,4.2-0.1,4.8s-3,2.6-3.4,3.3c-0.5,0.7,3.3,5.2,3.7,7.6c0.4,2.4-0.9,3.1-1.3,3.2
					c-0.4,0.1-2.9,2.6-1.7,2.5c3.3-1.1,4.5,0.5,5,1.6s-2,3.5-2,5.4s1.4,2.1,2.4,5c0.9,4.9-1.9,9.5-5.8,11C60,83.8,54.1,84,48.6,95
					H89V0H33z"/>
				<path class="st1" d="M3.9,108.6l1.4-3.6h2.4l-2.5,5.2l2.5,5.3H5.4L4,111.8l-1.5,3.7H0l2.5-5.3L0,105h2.4L3.9,108.6z"/>
				<path class="st1" d="M12.2,105l2,7.6l2-7.6H19v10.5h-2.1v-2.8l0.2-4.4l-2.1,7.2h-1.4l-2.1-7.2l0.2,4.4v2.8H9.5V105H12.2z"/>
				<path class="st1" d="M26,111h-3.3v2.8h3.9v1.8h-6V105h6v1.8h-3.9v2.5H26V111z"/>
				<path class="st1" d="M35.8,105v10.5h-2.1v-8.8h-1.9l-0.1,3.7c0,1.2-0.2,2.2-0.4,2.9c-0.2,0.7-0.5,1.3-1,1.6
					c-0.4,0.3-1,0.5-1.7,0.5H28v-1.8h0.3c0.5,0,0.8-0.3,1-0.9c0.2-0.5,0.3-1.5,0.4-2.8l0.1-5.1L35.8,105z"/>
				<path class="st1" d="M43.1,111h-3.3v2.8h3.9v1.8h-6V105h6v1.8h-3.9v2.5h3.3V111z M38.2,102.1c0-0.3,0.1-0.5,0.3-0.7
					s0.4-0.3,0.7-0.3s0.5,0.1,0.7,0.3c0.2,0.2,0.3,0.4,0.3,0.7c0,0.3-0.1,0.5-0.3,0.6c-0.2,0.2-0.4,0.3-0.7,0.3s-0.5-0.1-0.7-0.3
					C38.2,102.6,38.2,102.4,38.2,102.1z M41.6,102.1c0-0.3,0.1-0.5,0.3-0.7s0.4-0.3,0.7-0.3s0.5,0.1,0.7,0.3
					c0.2,0.2,0.3,0.4,0.3,0.7c0,0.3-0.1,0.5-0.3,0.6c-0.2,0.2-0.4,0.3-0.7,0.3s-0.5-0.1-0.7-0.3C41.8,102.6,41.6,102.4,41.6,102.1z"
					/>
				<path class="st1" d="M44.9,115.5V105h3.2c1.1,0,1.9,0.3,2.5,0.7c0.6,0.5,0.8,1.2,0.8,2.1c0,0.5-0.1,1-0.3,1.4
					c-0.3,0.4-0.5,0.7-1,0.8c0.5,0.1,0.8,0.4,1.1,0.8s0.4,0.9,0.4,1.5c0,1-0.3,1.8-0.8,2.3s-1.4,0.8-2.4,0.8L44.9,115.5L44.9,115.5z
					 M47.1,109.4h1.1c0.8,0,1.3-0.4,1.3-1.3c0-0.5-0.1-0.8-0.3-1s-0.5-0.3-0.9-0.3h-1.1L47.1,109.4
					C47.2,109.4,47.1,109.4,47.1,109.4z M47.1,111v2.8h1.3c0.4,0,0.7-0.1,0.9-0.3c0.2-0.3,0.3-0.6,0.3-1c0-0.9-0.3-1.4-1-1.4
					L47.1,111z"/>
				<path class="st1" d="M62.5,113.4h-2.9l-0.5,2.1h-2.2l3.3-10.5H62l3.3,10.5H63L62.5,113.4z M60.1,111.6h2l-1-3.7L60.1,111.6z"/>
				<path class="st1" d="M68.7,111.8v3.7h-2.1V105h3.6c1,0,1.8,0.3,2.5,1c0.6,0.6,0.9,1.5,0.9,2.5s-0.3,1.9-0.9,2.4
					c-0.6,0.6-1.5,0.9-2.5,0.9H68.7z M68.7,110h1.5c0.4,0,0.7-0.1,0.9-0.4c0.2-0.3,0.3-0.6,0.3-1.1s-0.1-0.9-0.3-1.3
					c-0.2-0.3-0.5-0.5-0.9-0.5h-1.5V110z"/>
				<path class="st1" d="M81.7,106.7h-2.6v8.8H77v-8.8h-2.6V105h7.3C81.7,105,81.7,106.7,81.7,106.7z"/>
				<path class="st1" d="M88.3,111H85v2.8h4v1.8h-6V105h6v1.8h-3.9v2.5h3.3L88.3,111L88.3,111z M83.3,102.1c0-0.3,0.1-0.5,0.3-0.7
					c0.2-0.2,0.4-0.3,0.7-0.3c0.3,0,0.5,0.1,0.7,0.3c0.2,0.2,0.3,0.4,0.3,0.7c0,0.3-0.1,0.5-0.3,0.6c-0.2,0.2-0.4,0.3-0.7,0.3
					c-0.3,0-0.5-0.1-0.7-0.3C83.4,102.6,83.3,102.4,83.3,102.1z M86.8,102.1c0-0.3,0.1-0.5,0.3-0.7c0.2-0.2,0.4-0.3,0.7-0.3
					c0.3,0,0.5,0.1,0.7,0.3c0.2,0.2,0.3,0.4,0.3,0.7c0,0.3-0.1,0.5-0.3,0.6c-0.2,0.2-0.4,0.3-0.7,0.3c-0.3,0-0.5-0.1-0.7-0.3
					C86.9,102.6,86.8,102.4,86.8,102.1z"/>
				<path class="st1" d="M93.2,105l2,7.6l2-7.6h2.8v10.5h-2.1v-2.8l0.2-4.4l-2.1,7.2h-1.4l-2.1-7.2l0.2,4.4v2.8h-2.1V105H93.2z"/>
			</g>
		</g>
	</g>
</g>
</svg>
