<svg width="31" height="50" viewBox="0 0 31 50" fill="none" xmlns="http://www.w3.org/2000/svg">
<path d="M0.0217285 0V1.61979C0.499716 1.79558 0.524874 2.17227 1.85821 2.7122C4.76387 3.89251 8.19783 8.12406 9.53116 9.5555C10.8519 10.9869 11.3425 11.9915 11.3551 12.8076C11.3676 13.6364 10.7639 14.6283 11.5186 16.0974C12.2733 17.5665 16.8268 19.2115 18.1475 20.0025C19.4808 20.7936 18.4746 22.1874 18.1098 22.5138C17.745 22.8403 16.5249 23.8699 16.2733 24.2717C16.0217 24.661 18.0343 27.0341 18.2481 28.2772C18.462 29.5329 17.745 29.8845 17.5312 29.9598C17.3173 30.0352 15.984 31.3159 16.6381 31.2531C18.4242 30.6504 19.0406 31.5419 19.2922 32.0819C19.5437 32.6218 18.2859 33.9402 18.2859 34.9448C18.2859 35.9493 19.0532 36.0372 19.5815 37.5942C20.0846 40.1683 18.5752 42.5791 16.4997 43.3702C14.5123 44.1236 11.3299 44.1989 8.42425 50H30.0217V0H0.0217285Z" fill="#414141"/>
</svg>
