<svg width="22" height="24" viewBox="0 0 22 24" fill="none" xmlns="http://www.w3.org/2000/svg">
<path fill-rule="evenodd" clip-rule="evenodd" d="M1.998 0H17.9142L22 4.08579V24H2V22H20V7H15V2H3.998V9H1.998V0ZM17 2V5H20V4.91421L17.0858 2H17ZM0 11H2.5C3.72039 11 4.61695 11.3932 5.16762 12.109C5.67966 12.7747 5.75 13.5425 5.75 14C5.75 14.4575 5.67966 15.2253 5.16762 15.891C4.61695 16.6068 3.72039 17 2.5 17H2.25V19H0V11ZM2 15H2.5C3.27961 15 3.50805 14.7682 3.58238 14.6715C3.69534 14.5247 3.75 14.2925 3.75 14C3.75 13.7075 3.69534 13.4753 3.58238 13.3285C3.50805 13.2318 3.27961 13 2.5 13H2V15ZM6.5 11H9.205C9.90369 11 10.7928 11.1527 11.4907 11.8602C12.1818 12.5607 12.5 13.6175 12.5 15C12.5 16.3825 12.1818 17.4393 11.4907 18.1398C10.7928 18.8473 9.90369 19 9.205 19H6.5V11ZM8.5 13V17H9.205C9.64331 17 9.90172 16.9027 10.067 16.7352C10.2392 16.5607 10.5 16.1175 10.5 15C10.5 13.8825 10.2392 13.4393 10.067 13.2648C9.90172 13.0973 9.64331 13 9.205 13H8.5ZM13.5 11H18.5V13H15.5V14.5H17.5V16.5H15.5V19H13.5V11Z" fill="#5B3137"/>
</svg>
